<svg viewBox="0 0 400 300" xmlns="http://www.w3.org/2000/svg">
  <circle cx="200" cy="150" r="120" fill="#4A90E2"/>
  <path d="M150,120 Q200,80 250,120 Q270,140 260,170 Q250,200 220,210 Q190,220 160,200 Q140,180 150,120 Z" fill="#7ED321"/>
  <path d="M210,90 Q230,70 250,90 Q260,110 255,130 Q250,150 235,160 Q220,170 205,160 Q190,150 185,130 Q180,110 210,90 Z" fill="#7ED321"/>
  <path d="M170,180 Q190,190 210,180 Q220,170 225,150 Q230,130 215,120 Q200,110 185,120 Q170,130 170,180 Z" fill="#7ED321"/>
</svg>