<svg viewBox="0 0 400 300" xmlns="http://www.w3.org/2000/svg">
  <rect width="400" height="300" fill="#e0f7fa"/>
  <polygon points="100,200 180,160 220,180 260,150 300,170 340,140 360,160 360,220 100,220" fill="#e0f2f1"/>
  <circle cx="200" cy="120" r="40" fill="#ffffff"/>
  <circle cx="190" cy="115" r="5" fill="#37474f"/>
  <circle cx="210" cy="115" r="5" fill="#37474f"/>
  <path d="M185,125 Q200,135 215,125" stroke="#37474f" stroke-width="2" fill="none"/>
  <rect x="180" y="140" width="40" height="60" fill="#bbdefb"/>
  <rect x="175" y="145" width="10" height="15" fill="#90caf9"/>
  <rect x="215" y="145" width="10" height="15" fill="#90caf9"/>
  <rect x="185" y="200" width="30" height="20" fill="#bbdefb"/>
  <polygon points="185,200 215,200 200,220" fill="#bbdefb"/>
  <rect x="200" y="140" width="8" height="40" fill="#90caf9"/>
  <rect x="195" y="180" width="18" height="20" fill="#90caf9"/>
  <circle cx="200" cy="100" r="8" fill="#ffffff"/>
  <circle cx="195" cy="95" r="2" fill="#37474f"/>
  <circle cx="205" cy="95" r="2" fill="#37474f"/>
  <path d="M195,100 Q200,105 205,100" stroke="#37474f" stroke-width="1" fill="none"/>
</svg>