<svg xmlns="http://www.w3.org/2000/svg" viewBox="0 0 400 300">
  <rect width="400" height="300" fill="#e0f7fa"/>
  <rect y="220" width="400" height="80" fill="#80deea"/>
  <circle cx="320" cy="80" r="40" fill="#ffcc00" opacity="0.9"/>
  <rect x="290" y="40" width="60" height="8" fill="#ff6f00"/>
  <rect x="320" y="20" width="8" height="60" fill="#ff6f00"/>
  <rect x="320" y="20" width="8" height="60" fill="#ff6f00" transform="rotate(45 324 50)"/>
  <rect x="320" y="20" width="8" height="60" fill="#ff6f00" transform="rotate(-45 324 50)"/>
  <rect x="60" y="140" width="160" height="12" fill="#4db6ac"/>
  <rect x="60" y="128" width="160" height="12" fill="#4db6ac"/>
  <rect x="60" y="116" width="160" height="12" fill="#4db6ac"/>
  <rect x="60" y="104" width="160" height="12" fill="#4db6ac"/>
  <rect x="60" y="92" width="160" height="12" fill="#4db6ac"/>
  <rect x="60" y="80" width="160" height="12" fill="#4db6ac"/>
  <rect x="60" y="68" width="160" height="12" fill="#4db6ac"/>
  <rect x="60" y="56" width="160" height="12" fill="#4db6ac"/>
  <rect x="60" y="44" width="160" height="12" fill="#4db6ac"/>
  <rect x="60" y="32" width="160" height="12" fill="#4db6ac"/>
  <rect x="60" y="20" width="160" height="12" fill="#4db6ac"/>
  <rect x="60" y="8" width="160" height="12" fill="#4db6ac"/>
  <rect x="20" y="220" width="360" height="10" fill="#4db6ac"/>
  <rect x="180" y="140" width="40" height="80" fill="#78909c"/>
  <rect x="190" y="120" width="20" height="20" fill="#455a64"/>
  <circle cx="190" cy="130" r="3" fill="#ffcc00"/>
  <rect x="180" y="220" width="40" height="10" fill="#78909c"/>
  <rect x="185" y="230" width="30" height="5" fill="#455a64"/>
  <rect x="100" y="220" width="10" height="60" fill="#78909c"/>
  <rect x="100" y="160" width="10" height="20" fill="#455a64"/>
  <rect x="100" y="140" width="30" height="20" fill="#78909c"/>
  <rect x="115" y="130" width="10" height="10" fill="#455a64"/>
  <rect x="100" y="220" width="10" height="10" fill="#455a64"/>
  <rect x="100" y="230" width="30" height="5" fill="#455a64"/>
</svg>