<svg xmlns="http://www.w3.org/2000/svg" viewBox="0 0 400 300">
  <rect width="400" height="300" fill="#f8f9fa"/>
  <rect x="50" y="180" width="300" height="20" fill="#495057"/>
  <circle cx="150" cy="120" r="25" fill="#495057"/>
  <rect x="140" y="145" width="20" height="50" fill="#495057"/>
  <rect x="125" y="145" width="50" height="12" fill="#495057"/>
  <rect x="135" y="157" width="30" height="25" fill="#495057" transform="rotate(-15 150 170)"/>
  <rect x="135" y="157" width="30" height="25" fill="#495057" transform="rotate(15 150 170)"/>
  <rect x="190" y="110" width="120" height="20" fill="#20c997"/>
  <text x="250" y="125" font-family="sans-serif" font-size="14" fill="#fff" text-anchor="middle" dominant-baseline="middle">CLIMATE JUSTICE</text>
  <circle cx="320" cy="80" r="12" fill="#ffd43b"/>
  <circle cx="320" cy="80" r="4" fill="#e07a00"/>
  <rect x="315" y="90" width="10" height="40" fill="#495057"/>
  <rect x="305" y="130" width="30" height="8" fill="#495057"/>
  <rect x="310" y="138" width="20" height="12" fill="#495057"/>
  <rect x="320" y="150" width="2" height="10" fill="#495057"/>
  <rect x="318" y="150" width="2" height="10" fill="#495057"/>
  <rect x="322" y="150" width="2" height="10" fill="#495057"/>
</svg>